# xmcd
#
# Track frame offsets: 
#        150
#        25757
#        55228
#        73870
#        92347
#        107257
#        124433
#        141085
#        154581
#        170507
#
# Disc length: 2483 seconds
#
# Revision: 0
# Processed by: cddbd v1.5.1PL0 Copyright (c) Steve Scherf et al.
# Submitted via: ExactAudioCopy v0.95b1
#
DISCID=7e09b10a
DTITLE=А. Мугу и А. Тлебзу - Черные глаза
DYEAR=2005
DGENRE=Folklore
TTITLE0=Черные глаза
TTITLE1=Фатима
TTITLE2=Есть красивая
TTITLE3=Бжыхьэпэ маэ
TTITLE4=Сидэхэкiэй
TTITLE5=Кавказ
TTITLE6=Не ревнуй
TTITLE7=Долалай
TTITLE8=Тызытеткiэ зы дунай
TTITLE9=Тызытеткiэ эы дунай
EXTD=
EXTT0=
EXTT1=
EXTT2=
EXTT3=
EXTT4=
EXTT5=
EXTT6=
EXTT7=
EXTT8=
EXTT9=
PLAYORDER=
